<?xml version="1.0" encoding="UTF-8"?><svg id="a" xmlns="http://www.w3.org/2000/svg" viewBox="0 0 52.92 52.92"><defs><style>.b{fill:#0a0d13;}.b,.c{fill-rule:evenodd;stroke-width:0px;}.c{fill:#fff;}</style></defs><path class="c" d="M10.64,0h31.64c5.88,0,10.64,4.76,10.64,10.64v31.64c0,5.88-4.76,10.64-10.64,10.64H10.64c-5.88,0-10.64-4.76-10.64-10.64V10.64C0,4.76,4.76,0,10.64,0h0Z"/><path class="b" d="M11.84,21.15h5.91v19.85h-5.91v-19.85ZM14.75,11.09c1.97,0,3.58,1.61,3.58,3.58s-1.61,3.58-3.58,3.58-3.5-1.61-3.5-3.58,1.53-3.58,3.5-3.58h0ZM21.25,21.15h5.84v2.77c1.24-1.82,3.28-2.99,5.62-2.99h1.61c3.72,0,6.71,3.06,6.71,6.71v13.35h-5.84v-1.82h0v-8.9h0c-.07-2.26-1.61-4.01-3.87-4.01h0c-2.26,0-4.16,1.75-4.23,4.01h0v10.73h-5.84v-19.85Z"/></svg>